<svg id="Слой_2" data-name="Слой 2" xmlns="http://www.w3.org/2000/svg" viewBox="0 0 96 96"><defs><style>.cls-1{fill:#fefefe;}.cls-2{fill:#db0032;}.cls-3{fill:#1e1e1e;}</style></defs><title>Гарантія vitals 36 міс. (Укр.) сайт</title><path class="cls-1" d="M96,41.73H89.71a42.32,42.32,0,0,1,.48,6.38,42.83,42.83,0,0,1-1,9.09H96v1.37H84.79c-.31,1.09-.66,2.15-1.06,3.19H92v1.37H87.45a42.29,42.29,0,0,1-79,0H4.49V61.76h7.66c-.4-1-.75-2.1-1.06-3.19H0V57.2H6.67a42.64,42.64,0,0,1-.5-15.47H0V40.36h10.4c.18-.88.39-1.74.63-2.59H4.49V36.4H7.33a42.27,42.27,0,0,1,81.22,0H92v1.37H84.82c.24.85.45,1.71.63,2.59H96Z"/><path class="cls-2" d="M32.76,46h3.56c2.2,0,3-.44,3-2.34,0-1.72-.75-2.27-4.57-2.27a24.89,24.89,0,0,0-5.66.65l-1-4.78a40.51,40.51,0,0,1,8-.84c7,0,9.11,1.62,9.11,6.13,0,3.28-.84,5.28-5.08,5.62,4.47.2,5.56,2.4,5.56,6.09C45.6,59.3,42.85,61,36,61a43.69,43.69,0,0,1-8-.81l1-4.84a25.89,25.89,0,0,0,5.72.64c4.13,0,5-.61,5-2.68s-.88-2.71-3.22-2.71H32.76Z"/><path class="cls-2" d="M65.85,42.07a20.14,20.14,0,0,0-5.69-.68c-3,0-4.71.64-4.87,4.57a25.49,25.49,0,0,1,3.62-.27c6.77,0,8.8,2,8.8,7.38,0,6.2-2.3,8-9.07,8s-9.25-2.84-9.25-12.46,2.75-12.19,10.77-12.19a27.83,27.83,0,0,1,6.74.88ZM62,53.21c0-2.3-.82-2.88-3.15-2.88a34.85,34.85,0,0,0-3.7.2C55.32,55.31,56.3,56,58.64,56,61.42,56,62,55.27,62,53.21Z"/><path class="cls-2" d="M37,75.36l1.46.67-2.28,5L35,80.49l1.54-3.36c-.76.66-1.86,1.69-2.57,2.38l-.92-.42c.07-1,.18-2.51.19-3.47L31.72,79l-1.11-.51,2.28-5,1.54.7c0,1,0,2.39-.06,3.5C35.16,76.92,36.18,76,37,75.36Z"/><path class="cls-2" d="M40.6,76.52l-1.46,5.27-1.22-.34,1.47-5.27Z"/><path class="cls-2" d="M44,77a6.69,6.69,0,0,1,1.53.45l-.42,1.06a3.74,3.74,0,0,0-1-.32c-1.08-.17-1.51-.08-1.75,1.41s.13,1.76,1.22,1.93a4,4,0,0,0,1.08,0l.06,1.16A6.67,6.67,0,0,1,43,82.68c-1.74-.28-2.45-1.07-2.1-3.27S42.21,76.76,44,77Z"/><path class="cls-2" d="M45.68,79.05c0-.9.38-1.6,1.5-1.6h3l0,5.47H49V81h-.8c-.58,0-.85.28-1.31,2H45.41c.66-2,1-2.28,1.64-2.36A1.34,1.34,0,0,1,45.68,79.05ZM49,78.52H47.55c-.28,0-.46.23-.46.72s.21.69.48.69H49Z"/><path class="cls-2" d="M53.2,81.36l2-.4-.83-4.22,1.24-.25.83,4.23.94-.18.28,2.35-1.1.22-.23-1.19-4.16.82-1.06-5.36,1.24-.25Z"/><path class="cls-2" d="M58.06,75.64l1.79,5.17-1.19.41-1.79-5.17Z"/><path class="cls-2" d="M64.91,76.87a1.27,1.27,0,0,1-.63,2l-2.79,1.4L59,75.34,61.81,74c1-.48,1.43-.2,1.81.57s.37,1.15-.48,1.66C64.1,75.76,64.53,76.1,64.91,76.87Zm-3.8-.21L62.45,76c.21-.11.25-.29.08-.63s-.33-.41-.55-.3l-1.33.67ZM63.5,78c.24-.12.28-.34.09-.72s-.42-.52-.68-.39l-1.34.67.56,1.12Z"/><path class="cls-3" d="M26.49,28.14c-.81.87-1.5,1-2.65-.1s-1.08-1.76-.27-2.63,1.5-1,2.64.09S27.31,27.26,26.49,28.14Zm-2.67-2.5c-.67.71-.71,1.13.32,2.09s1.44.88,2.1.17.67-1.18-.31-2.09S24.49,24.92,23.82,25.64Z"/><path class="cls-3" d="M27,22.31l.35.43c1-.77,1.54-.64,2.09,0s.57,1.23-.38,2l.36.44-.31.25-.35-.44c-1,.75-1.53.61-2.07-.06s-.57-1.22.35-2l-.35-.43Zm1.54,2.51L27.3,23.25c-.77.67-.7,1-.27,1.53S27.77,25.44,28.58,24.82ZM27.6,23l1.29,1.57c.79-.68.72-1,.29-1.55S28.43,22.36,27.6,23Z"/><path class="cls-3" d="M29.54,20.47l2.14,3.17-.33.22-2.13-3.17Z"/><path class="cls-3" d="M32.71,22.58l1.78-1-1.68-3.07.34-.19,1.68,3.07.62-.34.46,1.08-.29.17-.41-.75-2.69,1.48-1.84-3.35.34-.19Z"/><path class="cls-3" d="M34.9,17.57l1.53,3.51-.37.16-1.52-3.51Z"/><path class="cls-3" d="M37.6,20.15c.35-1.31.64-2.63.87-3.88l.44-.15,1.2,3.64-.37.12-1-3.09c-.23,1.23-.52,2.53-.85,3.71l-.51.17L36.16,17l.38-.12Zm-1-4.26a.63.63,0,0,0,.91.43.62.62,0,0,0,.47-.88l-.27.08c.1.3,0,.41-.3.5s-.43.07-.53-.22Z"/><path class="cls-3" d="M41.46,19.44l-.39.07-.71-3.75.39-.08L41,17.25l2-.38-.3-1.56.39-.08L43.84,19l-.39.07-.34-1.83-2,.37Z"/><path class="cls-3" d="M47.44,18.72c-.17-.36-.35-.74-.53-1.15l-1.86.11c-.11.4-.22.8-.32,1.2l-.39,0c.36-1.31.75-2.6,1.21-3.91l.67,0c.51,1.26,1.14,2.7,1.67,3.73Zm-1.63-3.43c-.24.7-.46,1.38-.66,2.06l1.62-.1c-.27-.63-.55-1.31-.81-2Z"/><path class="cls-3" d="M49.89,18.82,50.2,15l2.37.2,0,.33-2-.17-.29,3.49Z"/><path class="cls-3" d="M55.29,19.65c-.07-.39-.15-.81-.21-1.25L53.25,18c-.22.36-.42.71-.63,1.08L52.24,19c.69-1.17,1.41-2.31,2.2-3.45l.66.13c.16,1.36.39,2.91.62,4Zm-.68-3.73c-.41.61-.8,1.2-1.18,1.8l1.6.34c-.1-.69-.19-1.41-.26-2.11Z"/><path class="cls-3" d="M56.18,19.91l1.23-3.63,1.61.55c.81.27.85.9.64,1.52a1,1,0,0,1-1.39.78L57,18.7,56.55,20Zm2.17-1.12c.43.14.73-.12.89-.58s.09-.93-.3-1.06l-1.27-.43-.55,1.65Z"/><path class="cls-3" d="M61.81,22.2c0-.39,0-.82.09-1.26l-1.68-.81q-.44.44-.87.9L59,20.86c1-1,1.92-1.91,3-2.83l.6.29c-.16,1.35-.31,2.92-.35,4.07ZM62,18.41c-.54.5-1.07,1-1.57,1.48l1.47.7c.06-.69.15-1.41.24-2.11Z"/><path class="cls-3" d="M63,22.86l-.34-.21,2.08-3.22.33.21L64.15,21l1.71,1.1.87-1.35.32.22L65,24.17,64.65,24l1-1.57L64,21.29Z"/><path class="cls-3" d="M66.71,25.55l-.31-.26,2.22-2.7-1-.84.21-.26,2.36,1.94-.21.26-1-.84Z"/><path class="cls-3" d="M71,24.28,68.36,27l-.28-.27L70.73,24Z"/><path class="cls-3" d="M73.69,27.17,70.82,29.7l-.26-.3,1.24-1.09-.47-.55c-.33-.37-.73-.53-2.16.06l-.31-.35C70.28,27,70.63,27,71,27.29a.93.93,0,0,1,0-1.48,1,1,0,0,1,1.55.08Zm-1.37-1.06c-.27-.31-.63-.31-1,0a.64.64,0,0,0-.09,1l.84,1,1.13-1Z"/><path class="cls-2" d="M96,40.36H85.42c-.18-.88-.39-1.74-.63-2.59h7.15V36.39H88.52a42.28,42.28,0,0,0-81.22,0H4.46v1.38H11c-.24.85-.45,1.71-.63,2.59H0v1.37H6.14a43.56,43.56,0,0,0-.48,6.38,42.19,42.19,0,0,0,1,9.09H0v1.37H11.06c.31,1.08.66,2.14,1.06,3.19H4.46v1.37H8.4a42.29,42.29,0,0,0,79,0h4.51V61.76H83.7c.4-1,.75-2.11,1.06-3.19H96V57.2H89.19a42.83,42.83,0,0,0,1-9.09,42.23,42.23,0,0,0-.48-6.38H96Zm-87.25-4a40.89,40.89,0,0,1,78.33,0h-2.7a38.3,38.3,0,0,0-72.93,0ZM85.93,63.13a40.88,40.88,0,0,1-76,0h2.79a38.3,38.3,0,0,0,70.47,0Zm1.84-5.93H73.91v1.37h9.83c-.32,1.08-.68,2.15-1.09,3.19H71.33v1.37H82.07a37.31,37.31,0,0,1-68.32,0H25.06V61.76H13.17c-.41-1-.77-2.11-1.09-3.19h10V57.2h-14a41,41,0,0,1-.52-15.47H22V40.36H11.4c.19-.88.4-1.74.65-2.59H23.68V36.39H12.48a37.32,37.32,0,0,1,70.87,0H72.72v1.38h11c.25.85.47,1.71.65,2.59H74v1.37H88.29a41,41,0,0,1-.52,15.47Z"/><path class="cls-2" d="M68.28,33.29l-.63.47a24.4,24.4,0,0,0-39.48,0l-.62-.47a25.17,25.17,0,0,1,40.73,0Z"/><path class="cls-2" d="M64.58,33.57,64,34.1a21.3,21.3,0,0,0-32.16,0l-.58-.53a22.11,22.11,0,0,1,33.33,0Z"/><path class="cls-2" d="M27.55,64.12l.62-.48a24.38,24.38,0,0,0,39.48,0l.63.48a25.18,25.18,0,0,1-40.73,0Z"/><path class="cls-2" d="M31.25,63.84l.58-.53a21.31,21.31,0,0,0,32.17,0l.58.53a22.11,22.11,0,0,1-33.33,0Z"/></svg>